<svg xmlns="http://www.w3.org/2000/svg" xmlns:xlink="http://www.w3.org/1999/xlink" width="500" zoomAndPan="magnify" viewBox="0 0 375 374.999991" height="500" preserveAspectRatio="xMidYMid meet" version="1.0"><defs><g/></defs><g fill="#8c52ff" fill-opacity="1"><g transform="translate(1.769536, 188.406784)"><g><path d="M 7 0 L 7 -55.515625 L 16.203125 -55.515625 L 16.203125 0 Z M 25.3125 -26.96875 L 44.59375 0 L 34.125 0 L 19.28125 -21.84375 L 19.28125 -32.84375 L 32.765625 -55.515625 L 43.09375 -55.515625 Z M 25.3125 -26.96875 "/></g></g></g><g fill="#38b6ff" fill-opacity="1"><g transform="translate(52.078126, 188.406784)"><g><path d="M 52.4375 0 L 43.09375 0 L 28.703125 -41.578125 L 14.15625 0 L 4.75 0 L 24.1875 -55.4375 L 33.140625 -55.4375 Z M 33.671875 -17.625 L 35.859375 -11.53125 L 21.46875 -11.53125 L 23.578125 -17.625 Z M 33.671875 -17.625 "/></g></g></g><g fill="#ff914d" fill-opacity="1"><g transform="translate(109.242185, 188.406784)"><g><path d="M 52.4375 0 L 43.09375 0 L 28.703125 -41.578125 L 14.15625 0 L 4.75 0 L 24.1875 -55.4375 L 33.140625 -55.4375 Z M 33.671875 -17.625 L 35.859375 -11.53125 L 21.46875 -11.53125 L 23.578125 -17.625 Z M 33.671875 -17.625 "/></g></g></g><g fill="#7ed957" fill-opacity="1"><g transform="translate(166.406244, 188.406784)"><g><path d="M 16.203125 -55.515625 L 16.203125 -6.859375 L 41.734375 -6.859375 L 41.734375 0 L 7 0 L 7 -55.515625 Z M 16.203125 -55.515625 "/></g></g></g><g fill="#03989e" fill-opacity="1"><g transform="translate(210.386713, 188.406784)"><g><path d="M 6.78125 -55.515625 L 15.8125 -55.515625 L 15.8125 0 L 6.78125 0 Z M 44.453125 0 L 34.875 0 L 24.40625 -20.109375 C 24.257812 -20.109375 24.097656 -20.09375 23.921875 -20.0625 C 23.742188 -20.039062 23.476562 -20.03125 23.125 -20.03125 C 22.769531 -20.03125 22.253906 -20.03125 21.578125 -20.03125 C 20.898438 -20.03125 20.007812 -20.03125 18.90625 -20.03125 L 18.90625 -26.671875 L 24.03125 -26.671875 C 25.132812 -26.671875 26.238281 -26.859375 27.34375 -27.234375 C 28.445312 -27.609375 29.453125 -28.222656 30.359375 -29.078125 C 31.265625 -29.929688 31.992188 -31.125 32.546875 -32.65625 C 33.097656 -34.1875 33.375 -36.082031 33.375 -38.34375 C 33.375 -39.25 33.25 -40.289062 33 -41.46875 C 32.75 -42.644531 32.234375 -43.773438 31.453125 -44.859375 C 30.671875 -45.941406 29.578125 -46.847656 28.171875 -47.578125 C 26.765625 -48.304688 24.90625 -48.671875 22.59375 -48.671875 L 18.90625 -48.671875 L 18.90625 -55.515625 L 22.75 -55.515625 C 25.113281 -55.515625 27.445312 -55.140625 29.75 -54.390625 C 32.0625 -53.640625 34.132812 -52.507812 35.96875 -51 C 37.800781 -49.488281 39.28125 -47.664062 40.40625 -45.53125 C 41.539062 -43.40625 42.109375 -41.007812 42.109375 -38.34375 C 42.109375 -34.320312 41.175781 -30.90625 39.3125 -28.09375 C 37.457031 -25.28125 34.953125 -23.195312 31.796875 -21.84375 Z M 44.453125 0 "/></g></g></g><g fill="#cb6ce6" fill-opacity="1"><g transform="translate(260.097647, 188.406784)"><g><path d="M 52.4375 0 L 43.09375 0 L 28.703125 -41.578125 L 14.15625 0 L 4.75 0 L 24.1875 -55.4375 L 33.140625 -55.4375 Z M 33.671875 -17.625 L 35.859375 -11.53125 L 21.46875 -11.53125 L 23.578125 -17.625 Z M 33.671875 -17.625 "/></g></g></g><g fill="#ffde59" fill-opacity="1"><g transform="translate(317.261706, 188.406784)"><g><path d="M 4.515625 -55.515625 L 14.84375 -55.515625 L 26.515625 -11.984375 L 26.515625 0.296875 L 21.765625 0.296875 Z M 41.359375 -55.515625 L 51.609375 -55.515625 L 33.515625 0.296875 L 29.609375 0.296875 L 29.609375 -14.390625 Z M 41.359375 -55.515625 "/></g></g></g></svg>